<svg width="294" height="363" viewBox="0 0 294 363" fill="none" xmlns="http://www.w3.org/2000/svg">
<path d="M110.5 224C110.5 214 112 205 115 197C118.333 189 122.333 181.833 127 175.5C132 169.167 137.167 163.5 142.5 158.5C148.167 153.167 153.333 148.167 158 143.5C163 138.833 167 134.167 170 129.5C173.333 124.833 175 120 175 115C175 107.333 171.667 101.5 165 97.5C158.667 93.5 150.833 91.5 141.5 91.5C130.833 91.5 120.833 94.5 111.5 100.5C102.167 106.5 94.8333 114.833 89.5 125.5L0.5 81C13.1667 57 32.3333 37.5 58 22.5C83.6667 7.49999 116.5 -1.0252e-05 156.5 -1.0252e-05C182.833 -1.0252e-05 206.167 3.66666 226.5 11C247.167 18 263.5 28.6666 275.5 43C287.5 57 293.5 74.5 293.5 95.5C293.5 108.167 291.5 119.333 287.5 129C283.833 138.667 278.833 147.167 272.5 154.5C266.5 161.5 260.167 168 253.5 174C246.833 180 240.333 185.667 234 191C228 196 223 201.167 219 206.5C215.333 211.833 213.5 217.667 213.5 224H110.5ZM162 363C142.667 363 126.833 357.167 114.5 345.5C102.167 333.5 96 319.333 96 303C96 286.333 102.167 272.333 114.5 261C126.833 249.667 142.667 244 162 244C181.667 244 197.5 249.667 209.5 261C221.833 272.333 228 286.333 228 303C228 319.333 221.833 333.5 209.5 345.5C197.5 357.167 181.667 363 162 363Z" fill="#333333"/>
</svg>
